<svg width="116" height="128" viewBox="0 0 116 128" fill="none" xmlns="http://www.w3.org/2000/svg">
<path d="M115.224 89.6052V38.3947C115.221 36.1496 114.629 33.9446 113.505 32.0009C112.382 30.0571 110.767 28.443 108.822 27.3205L64.0131 1.71523C62.0669 0.591561 59.8591 0 57.6118 0C55.3645 0 53.1567 0.591561 51.2105 1.71523L6.40131 27.3205C4.45699 28.443 2.84206 30.0571 1.71851 32.0009C0.594956 33.9446 0.00230282 36.1496 0 38.3947V89.6052C0.00230282 91.8504 0.594956 94.0554 1.71851 95.9991C2.84206 97.9429 4.45699 99.557 6.40131 100.68L51.2105 126.285C53.1567 127.408 55.3645 128 57.6118 128C59.8591 128 62.0669 127.408 64.0131 126.285L108.822 100.68C110.767 99.557 112.382 97.9429 113.505 95.9991C114.629 94.0554 115.221 91.8504 115.224 89.6052Z" fill="#059467"/>
</svg>
