<svg width="700" height="320" viewBox="0 0 700 320" fill="none" xmlns="http://www.w3.org/2000/svg">
<rect width="700" height="320" rx="20" fill="url(#paint0_linear_19_2)"/>
<path d="M465.447 204.21V101.789C465.443 97.2993 464.257 92.8892 462.01 89.0018C459.763 85.1143 456.533 81.8861 452.645 79.641L363.026 28.4305C359.134 26.1831 354.718 25 350.224 25C345.729 25 341.313 26.1831 337.421 28.4305L247.803 79.641C243.914 81.8861 240.684 85.1143 238.437 89.0018C236.19 92.8892 235.005 97.2993 235 101.789V204.21C235.005 208.701 236.19 213.111 238.437 216.998C240.684 220.886 243.914 224.114 247.803 226.359L337.421 277.57C341.313 279.817 345.729 281 350.224 281C354.718 281 359.134 279.817 363.026 277.57L452.645 226.359C456.533 224.114 459.763 220.886 462.01 216.998C464.257 213.111 465.443 208.701 465.447 204.21Z" fill="url(#paint1_linear_19_2)"/>
<path d="M104.535 125.348C104.433 124.317 103.994 123.516 103.218 122.945C102.443 122.374 101.39 122.088 100.061 122.088C99.1572 122.088 98.3944 122.216 97.7722 122.472C97.1501 122.719 96.6728 123.064 96.3404 123.507C96.0166 123.95 95.8546 124.453 95.8546 125.016C95.8376 125.484 95.9356 125.893 96.1487 126.243C96.3703 126.592 96.6728 126.895 97.0563 127.151C97.4399 127.398 97.883 127.615 98.3859 127.803C98.8887 127.982 99.4257 128.135 99.9967 128.263L102.349 128.825C103.491 129.081 104.539 129.422 105.494 129.848C106.448 130.274 107.275 130.798 107.974 131.42C108.673 132.043 109.214 132.776 109.598 133.619C109.99 134.463 110.19 135.43 110.198 136.521C110.19 138.124 109.781 139.513 108.971 140.689C108.17 141.857 107.011 142.764 105.494 143.412C103.985 144.051 102.166 144.371 100.035 144.371C97.9214 144.371 96.0805 144.047 94.5123 143.399C92.9526 142.751 91.7339 141.793 90.8561 140.523C89.9867 139.244 89.5308 137.663 89.4882 135.78H94.8447C94.9043 136.658 95.1558 137.391 95.5989 137.979C96.0507 138.558 96.6515 138.997 97.4015 139.295C98.16 139.585 99.0166 139.73 99.9711 139.73C100.909 139.73 101.723 139.594 102.413 139.321C103.112 139.048 103.653 138.669 104.036 138.183C104.42 137.697 104.612 137.139 104.612 136.509C104.612 135.92 104.437 135.426 104.088 135.026C103.747 134.625 103.244 134.284 102.579 134.003C101.923 133.722 101.117 133.466 100.163 133.236L97.312 132.52C95.1046 131.983 93.3617 131.143 92.0833 130.001C90.8049 128.859 90.17 127.321 90.1785 125.386C90.17 123.801 90.5918 122.416 91.4441 121.232C92.3049 120.047 93.4853 119.122 94.9853 118.457C96.4853 117.793 98.1899 117.46 100.099 117.46C102.042 117.46 103.738 117.793 105.187 118.457C106.644 119.122 107.778 120.047 108.588 121.232C109.397 122.416 109.815 123.788 109.84 125.348H104.535ZM130.686 124.364L123.821 144H117.685L110.82 124.364H116.573L120.651 138.413H120.855L124.921 124.364H130.686ZM140.349 144.384C138.329 144.384 136.591 143.974 135.133 143.156C133.685 142.33 132.568 141.162 131.784 139.653C131 138.136 130.608 136.342 130.608 134.271C130.608 132.251 131 130.479 131.784 128.953C132.568 127.428 133.672 126.239 135.095 125.386C136.527 124.534 138.206 124.108 140.132 124.108C141.427 124.108 142.633 124.317 143.75 124.734C144.875 125.143 145.855 125.761 146.69 126.588C147.534 127.415 148.19 128.455 148.659 129.707C149.128 130.952 149.362 132.409 149.362 134.08V135.575H132.781V132.2H144.236C144.236 131.416 144.065 130.722 143.724 130.116C143.383 129.511 142.91 129.038 142.305 128.697C141.709 128.348 141.014 128.173 140.221 128.173C139.395 128.173 138.662 128.365 138.023 128.749C137.392 129.124 136.898 129.631 136.54 130.27C136.182 130.901 135.998 131.604 135.99 132.379V135.588C135.99 136.56 136.169 137.399 136.527 138.107C136.893 138.814 137.409 139.359 138.074 139.743C138.738 140.126 139.527 140.318 140.439 140.318C141.044 140.318 141.598 140.233 142.101 140.062C142.604 139.892 143.034 139.636 143.392 139.295C143.75 138.955 144.023 138.537 144.21 138.043L149.247 138.375C148.991 139.585 148.467 140.642 147.675 141.545C146.89 142.44 145.876 143.139 144.632 143.642C143.396 144.136 141.969 144.384 140.349 144.384ZM156.922 117.818V144H151.476V117.818H156.922ZM170.289 124.364V128.455H158.464V124.364H170.289ZM161.149 119.659H166.595V137.966C166.595 138.469 166.671 138.861 166.825 139.142C166.978 139.415 167.191 139.607 167.464 139.717C167.745 139.828 168.069 139.884 168.436 139.884C168.691 139.884 168.947 139.862 169.203 139.82C169.458 139.768 169.654 139.73 169.791 139.705L170.647 143.757C170.374 143.842 169.991 143.94 169.497 144.051C169.002 144.17 168.401 144.243 167.694 144.268C166.382 144.32 165.231 144.145 164.242 143.744C163.262 143.344 162.499 142.722 161.954 141.878C161.409 141.034 161.14 139.969 161.149 138.682V119.659ZM181.135 144.384C179.115 144.384 177.376 143.974 175.919 143.156C174.47 142.33 173.353 141.162 172.569 139.653C171.785 138.136 171.393 136.342 171.393 134.271C171.393 132.251 171.785 130.479 172.569 128.953C173.353 127.428 174.457 126.239 175.88 125.386C177.312 124.534 178.991 124.108 180.917 124.108C182.213 124.108 183.419 124.317 184.535 124.734C185.66 125.143 186.64 125.761 187.476 126.588C188.319 127.415 188.976 128.455 189.444 129.707C189.913 130.952 190.148 132.409 190.148 134.08V135.575H173.567V132.2H185.021C185.021 131.416 184.851 130.722 184.51 130.116C184.169 129.511 183.696 129.038 183.091 128.697C182.494 128.348 181.8 128.173 181.007 128.173C180.18 128.173 179.447 128.365 178.808 128.749C178.177 129.124 177.683 129.631 177.325 130.27C176.967 130.901 176.784 131.604 176.775 132.379V135.588C176.775 136.56 176.954 137.399 177.312 138.107C177.679 138.814 178.194 139.359 178.859 139.743C179.524 140.126 180.312 140.318 181.224 140.318C181.829 140.318 182.383 140.233 182.886 140.062C183.389 139.892 183.819 139.636 184.177 139.295C184.535 138.955 184.808 138.537 184.996 138.043L190.032 138.375C189.777 139.585 189.253 140.642 188.46 141.545C187.676 142.44 186.662 143.139 185.417 143.642C184.182 144.136 182.754 144.384 181.135 144.384ZM192.364 144V117.818H197.899V129.362H198.244L207.666 117.818H214.301L204.585 129.541L214.416 144H207.794L200.622 133.236L197.899 136.56V144H192.364ZM216.872 144V124.364H222.318V144H216.872ZM219.608 121.832C218.798 121.832 218.104 121.564 217.524 121.027C216.953 120.482 216.668 119.83 216.668 119.071C216.668 118.321 216.953 117.678 217.524 117.141C218.104 116.595 218.798 116.322 219.608 116.322C220.418 116.322 221.108 116.595 221.679 117.141C222.259 117.678 222.548 118.321 222.548 119.071C222.548 119.83 222.259 120.482 221.679 121.027C221.108 121.564 220.418 121.832 219.608 121.832ZM235.685 124.364V128.455H223.86V124.364H235.685ZM226.545 119.659H231.991V137.966C231.991 138.469 232.068 138.861 232.221 139.142C232.374 139.415 232.587 139.607 232.86 139.717C233.141 139.828 233.465 139.884 233.832 139.884C234.087 139.884 234.343 139.862 234.599 139.82C234.855 139.768 235.051 139.73 235.187 139.705L236.043 143.757C235.771 143.842 235.387 143.94 234.893 144.051C234.399 144.17 233.798 144.243 233.09 144.268C231.778 144.32 230.627 144.145 229.639 143.744C228.658 143.344 227.896 142.722 227.35 141.878C226.805 141.034 226.536 139.969 226.545 138.682V119.659ZM252.458 140.011V121.909H257.035V140.011H252.458ZM245.695 133.249V128.672H263.797V133.249H245.695ZM288.911 125.348C288.809 124.317 288.37 123.516 287.595 122.945C286.819 122.374 285.766 122.088 284.437 122.088C283.533 122.088 282.771 122.216 282.148 122.472C281.526 122.719 281.049 123.064 280.717 123.507C280.393 123.95 280.231 124.453 280.231 125.016C280.214 125.484 280.312 125.893 280.525 126.243C280.747 126.592 281.049 126.895 281.433 127.151C281.816 127.398 282.259 127.615 282.762 127.803C283.265 127.982 283.802 128.135 284.373 128.263L286.725 128.825C287.867 129.081 288.916 129.422 289.87 129.848C290.825 130.274 291.651 130.798 292.35 131.42C293.049 132.043 293.59 132.776 293.974 133.619C294.366 134.463 294.566 135.43 294.575 136.521C294.566 138.124 294.157 139.513 293.347 140.689C292.546 141.857 291.387 142.764 289.87 143.412C288.362 144.051 286.542 144.371 284.411 144.371C282.298 144.371 280.457 144.047 278.889 143.399C277.329 142.751 276.11 141.793 275.232 140.523C274.363 139.244 273.907 137.663 273.864 135.78H279.221C279.281 136.658 279.532 137.391 279.975 137.979C280.427 138.558 281.028 138.997 281.778 139.295C282.536 139.585 283.393 139.73 284.347 139.73C285.285 139.73 286.099 139.594 286.789 139.321C287.488 139.048 288.029 138.669 288.413 138.183C288.796 137.697 288.988 137.139 288.988 136.509C288.988 135.92 288.813 135.426 288.464 135.026C288.123 134.625 287.62 134.284 286.955 134.003C286.299 133.722 285.494 133.466 284.539 133.236L281.688 132.52C279.481 131.983 277.738 131.143 276.46 130.001C275.181 128.859 274.546 127.321 274.555 125.386C274.546 123.801 274.968 122.416 275.82 121.232C276.681 120.047 277.862 119.122 279.362 118.457C280.862 117.793 282.566 117.46 284.475 117.46C286.418 117.46 288.114 117.793 289.563 118.457C291.021 119.122 292.154 120.047 292.964 121.232C293.773 122.416 294.191 123.788 294.217 125.348H288.911ZM309.348 135.639V124.364H314.794V144H309.565V140.433H309.361C308.918 141.584 308.18 142.509 307.149 143.207C306.126 143.906 304.878 144.256 303.403 144.256C302.091 144.256 300.936 143.957 299.939 143.361C298.942 142.764 298.162 141.916 297.599 140.817C297.045 139.717 296.764 138.401 296.756 136.866V124.364H302.202V135.895C302.21 137.054 302.521 137.97 303.135 138.643C303.749 139.317 304.571 139.653 305.602 139.653C306.259 139.653 306.872 139.504 307.443 139.206C308.014 138.899 308.474 138.447 308.824 137.851C309.182 137.254 309.357 136.517 309.348 135.639ZM317.71 151.364V124.364H323.08V127.662H323.322C323.561 127.134 323.906 126.597 324.358 126.051C324.818 125.497 325.415 125.037 326.148 124.67C326.889 124.295 327.81 124.108 328.909 124.108C330.341 124.108 331.662 124.483 332.872 125.233C334.082 125.974 335.05 127.095 335.774 128.595C336.499 130.087 336.861 131.957 336.861 134.207C336.861 136.398 336.507 138.247 335.8 139.756C335.101 141.256 334.146 142.393 332.936 143.169C331.734 143.936 330.388 144.32 328.896 144.32C327.84 144.32 326.94 144.145 326.199 143.795C325.466 143.446 324.865 143.007 324.396 142.479C323.928 141.942 323.57 141.401 323.322 140.855H323.156V151.364H317.71ZM323.041 134.182C323.041 135.349 323.203 136.368 323.527 137.237C323.851 138.107 324.32 138.784 324.933 139.27C325.547 139.747 326.293 139.986 327.17 139.986C328.057 139.986 328.807 139.743 329.42 139.257C330.034 138.763 330.499 138.081 330.814 137.212C331.138 136.334 331.3 135.324 331.3 134.182C331.3 133.048 331.142 132.051 330.827 131.19C330.511 130.33 330.047 129.656 329.433 129.17C328.82 128.685 328.065 128.442 327.17 128.442C326.284 128.442 325.534 128.676 324.92 129.145C324.315 129.614 323.851 130.278 323.527 131.139C323.203 132 323.041 133.014 323.041 134.182ZM344.651 144.371C343.398 144.371 342.282 144.153 341.301 143.719C340.321 143.276 339.546 142.624 338.975 141.763C338.412 140.893 338.131 139.811 338.131 138.516C338.131 137.425 338.331 136.509 338.732 135.767C339.132 135.026 339.678 134.429 340.368 133.977C341.059 133.526 341.843 133.185 342.721 132.955C343.607 132.724 344.536 132.562 345.507 132.469C346.65 132.349 347.57 132.239 348.269 132.136C348.968 132.026 349.475 131.864 349.79 131.651C350.105 131.437 350.263 131.122 350.263 130.705V130.628C350.263 129.818 350.007 129.192 349.496 128.749C348.993 128.305 348.277 128.084 347.348 128.084C346.368 128.084 345.588 128.301 345.009 128.736C344.429 129.162 344.046 129.699 343.858 130.347L338.821 129.938C339.077 128.744 339.58 127.713 340.33 126.844C341.08 125.966 342.047 125.293 343.232 124.824C344.425 124.347 345.806 124.108 347.374 124.108C348.465 124.108 349.509 124.236 350.506 124.491C351.512 124.747 352.402 125.143 353.178 125.68C353.962 126.217 354.58 126.908 355.032 127.751C355.483 128.587 355.709 129.588 355.709 130.756V144H350.544V141.277H350.391C350.076 141.891 349.654 142.432 349.125 142.901C348.597 143.361 347.962 143.723 347.221 143.987C346.479 144.243 345.623 144.371 344.651 144.371ZM346.211 140.612C347.012 140.612 347.719 140.455 348.333 140.139C348.946 139.815 349.428 139.381 349.777 138.835C350.127 138.29 350.302 137.672 350.302 136.982V134.898C350.131 135.009 349.897 135.111 349.598 135.205C349.309 135.29 348.98 135.371 348.614 135.447C348.248 135.516 347.881 135.58 347.515 135.639C347.148 135.69 346.816 135.737 346.517 135.78C345.878 135.874 345.32 136.023 344.843 136.227C344.365 136.432 343.995 136.709 343.73 137.058C343.466 137.399 343.334 137.825 343.334 138.337C343.334 139.078 343.603 139.645 344.14 140.037C344.685 140.42 345.375 140.612 346.211 140.612ZM358.597 144V117.818H364.043V127.662H364.209C364.447 127.134 364.793 126.597 365.244 126.051C365.705 125.497 366.301 125.037 367.034 124.67C367.776 124.295 368.696 124.108 369.795 124.108C371.227 124.108 372.548 124.483 373.759 125.233C374.969 125.974 375.936 127.095 376.661 128.595C377.385 130.087 377.747 131.957 377.747 134.207C377.747 136.398 377.393 138.247 376.686 139.756C375.987 141.256 375.033 142.393 373.822 143.169C372.621 143.936 371.274 144.32 369.783 144.32C368.726 144.32 367.827 144.145 367.085 143.795C366.352 143.446 365.751 143.007 365.283 142.479C364.814 141.942 364.456 141.401 364.209 140.855H363.966V144H358.597ZM363.928 134.182C363.928 135.349 364.089 136.368 364.413 137.237C364.737 138.107 365.206 138.784 365.82 139.27C366.433 139.747 367.179 139.986 368.057 139.986C368.943 139.986 369.693 139.743 370.307 139.257C370.92 138.763 371.385 138.081 371.7 137.212C372.024 136.334 372.186 135.324 372.186 134.182C372.186 133.048 372.028 132.051 371.713 131.19C371.398 130.33 370.933 129.656 370.32 129.17C369.706 128.685 368.952 128.442 368.057 128.442C367.17 128.442 366.42 128.676 365.807 129.145C365.202 129.614 364.737 130.278 364.413 131.139C364.089 132 363.928 133.014 363.928 134.182ZM385.54 144.371C384.288 144.371 383.171 144.153 382.191 143.719C381.211 143.276 380.435 142.624 379.864 141.763C379.302 140.893 379.021 139.811 379.021 138.516C379.021 137.425 379.221 136.509 379.621 135.767C380.022 135.026 380.567 134.429 381.258 133.977C381.948 133.526 382.732 133.185 383.61 132.955C384.496 132.724 385.425 132.562 386.397 132.469C387.539 132.349 388.459 132.239 389.158 132.136C389.857 132.026 390.364 131.864 390.68 131.651C390.995 131.437 391.153 131.122 391.153 130.705V130.628C391.153 129.818 390.897 129.192 390.386 128.749C389.883 128.305 389.167 128.084 388.238 128.084C387.258 128.084 386.478 128.301 385.898 128.736C385.319 129.162 384.935 129.699 384.748 130.347L379.711 129.938C379.967 128.744 380.469 127.713 381.219 126.844C381.969 125.966 382.937 125.293 384.121 124.824C385.315 124.347 386.695 124.108 388.263 124.108C389.354 124.108 390.398 124.236 391.396 124.491C392.401 124.747 393.292 125.143 394.067 125.68C394.852 126.217 395.469 126.908 395.921 127.751C396.373 128.587 396.599 129.588 396.599 130.756V144H391.434V141.277H391.281C390.965 141.891 390.543 142.432 390.015 142.901C389.486 143.361 388.852 143.723 388.11 143.987C387.369 144.243 386.512 144.371 385.54 144.371ZM387.1 140.612C387.901 140.612 388.609 140.455 389.222 140.139C389.836 139.815 390.317 139.381 390.667 138.835C391.016 138.29 391.191 137.672 391.191 136.982V134.898C391.021 135.009 390.786 135.111 390.488 135.205C390.198 135.29 389.87 135.371 389.504 135.447C389.137 135.516 388.771 135.58 388.404 135.639C388.038 135.69 387.705 135.737 387.407 135.78C386.768 135.874 386.209 136.023 385.732 136.227C385.255 136.432 384.884 136.709 384.62 137.058C384.356 137.399 384.224 137.825 384.224 138.337C384.224 139.078 384.492 139.645 385.029 140.037C385.575 140.42 386.265 140.612 387.1 140.612ZM415.722 129.963L410.736 130.27C410.651 129.844 410.468 129.46 410.186 129.119C409.905 128.77 409.534 128.493 409.074 128.288C408.622 128.075 408.081 127.969 407.451 127.969C406.607 127.969 405.895 128.148 405.316 128.506C404.736 128.855 404.446 129.324 404.446 129.912C404.446 130.381 404.634 130.777 405.009 131.101C405.384 131.425 406.027 131.685 406.939 131.881L410.493 132.597C412.402 132.989 413.826 133.619 414.763 134.489C415.701 135.358 416.169 136.5 416.169 137.915C416.169 139.202 415.79 140.331 415.032 141.303C414.282 142.274 413.25 143.033 411.938 143.578C410.634 144.115 409.13 144.384 407.425 144.384C404.826 144.384 402.755 143.842 401.212 142.76C399.678 141.669 398.779 140.186 398.515 138.311L403.871 138.03C404.033 138.822 404.425 139.428 405.047 139.845C405.669 140.254 406.466 140.459 407.438 140.459C408.392 140.459 409.159 140.276 409.739 139.909C410.327 139.534 410.625 139.053 410.634 138.464C410.625 137.97 410.417 137.565 410.007 137.25C409.598 136.926 408.968 136.679 408.115 136.509L404.715 135.831C402.797 135.447 401.37 134.783 400.432 133.837C399.503 132.891 399.039 131.685 399.039 130.219C399.039 128.957 399.38 127.871 400.061 126.959C400.752 126.047 401.719 125.344 402.963 124.849C404.216 124.355 405.682 124.108 407.361 124.108C409.841 124.108 411.793 124.632 413.216 125.68C414.648 126.729 415.483 128.156 415.722 129.963ZM427.108 144.384C425.088 144.384 423.349 143.974 421.892 143.156C420.443 142.33 419.326 141.162 418.542 139.653C417.758 138.136 417.366 136.342 417.366 134.271C417.366 132.251 417.758 130.479 418.542 128.953C419.326 127.428 420.43 126.239 421.853 125.386C423.285 124.534 424.964 124.108 426.89 124.108C428.186 124.108 429.392 124.317 430.508 124.734C431.633 125.143 432.613 125.761 433.448 126.588C434.292 127.415 434.948 128.455 435.417 129.707C435.886 130.952 436.12 132.409 436.12 134.08V135.575H419.539V132.2H430.994C430.994 131.416 430.823 130.722 430.483 130.116C430.142 129.511 429.669 129.038 429.064 128.697C428.467 128.348 427.772 128.173 426.98 128.173C426.153 128.173 425.42 128.365 424.781 128.749C424.15 129.124 423.656 129.631 423.298 130.27C422.94 130.901 422.757 131.604 422.748 132.379V135.588C422.748 136.56 422.927 137.399 423.285 138.107C423.652 138.814 424.167 139.359 424.832 139.743C425.497 140.126 426.285 140.318 427.197 140.318C427.802 140.318 428.356 140.233 428.859 140.062C429.362 139.892 429.792 139.636 430.15 139.295C430.508 138.955 430.781 138.537 430.968 138.043L436.005 138.375C435.75 139.585 435.225 140.642 434.433 141.545C433.649 142.44 432.635 143.139 431.39 143.642C430.154 144.136 428.727 144.384 427.108 144.384ZM459.432 125.348C459.329 124.317 458.891 123.516 458.115 122.945C457.339 122.374 456.287 122.088 454.957 122.088C454.054 122.088 453.291 122.216 452.669 122.472C452.047 122.719 451.57 123.064 451.237 123.507C450.913 123.95 450.751 124.453 450.751 125.016C450.734 125.484 450.832 125.893 451.045 126.243C451.267 126.592 451.57 126.895 451.953 127.151C452.337 127.398 452.78 127.615 453.283 127.803C453.785 127.982 454.322 128.135 454.893 128.263L457.246 128.825C458.388 129.081 459.436 129.422 460.391 129.848C461.345 130.274 462.172 130.798 462.871 131.42C463.57 132.043 464.111 132.776 464.494 133.619C464.886 134.463 465.087 135.43 465.095 136.521C465.087 138.124 464.677 139.513 463.868 140.689C463.067 141.857 461.908 142.764 460.391 143.412C458.882 144.051 457.062 144.371 454.932 144.371C452.818 144.371 450.977 144.047 449.409 143.399C447.849 142.751 446.631 141.793 445.753 140.523C444.883 139.244 444.427 137.663 444.385 135.78H449.741C449.801 136.658 450.052 137.391 450.496 137.979C450.947 138.558 451.548 138.997 452.298 139.295C453.057 139.585 453.913 139.73 454.868 139.73C455.805 139.73 456.619 139.594 457.31 139.321C458.008 139.048 458.55 138.669 458.933 138.183C459.317 137.697 459.508 137.139 459.508 136.509C459.508 135.92 459.334 135.426 458.984 135.026C458.643 134.625 458.141 134.284 457.476 134.003C456.82 133.722 456.014 133.466 455.06 133.236L452.209 132.52C450.001 131.983 448.258 131.143 446.98 130.001C445.702 128.859 445.067 127.321 445.075 125.386C445.067 123.801 445.489 122.416 446.341 121.232C447.202 120.047 448.382 119.122 449.882 118.457C451.382 117.793 453.087 117.46 454.996 117.46C456.939 117.46 458.635 117.793 460.084 118.457C461.541 119.122 462.675 120.047 463.484 121.232C464.294 122.416 464.712 123.788 464.737 125.348H459.432ZM477.721 124.364V128.455H465.896V124.364H477.721ZM468.58 119.659H474.026V137.966C474.026 138.469 474.103 138.861 474.256 139.142C474.41 139.415 474.623 139.607 474.896 139.717C475.177 139.828 475.501 139.884 475.867 139.884C476.123 139.884 476.378 139.862 476.634 139.82C476.89 139.768 477.086 139.73 477.222 139.705L478.079 143.757C477.806 143.842 477.423 143.94 476.928 144.051C476.434 144.17 475.833 144.243 475.126 144.268C473.813 144.32 472.663 144.145 471.674 143.744C470.694 143.344 469.931 142.722 469.386 141.878C468.84 141.034 468.572 139.969 468.58 138.682V119.659ZM485.428 144.371C484.175 144.371 483.058 144.153 482.078 143.719C481.098 143.276 480.323 142.624 479.752 141.763C479.189 140.893 478.908 139.811 478.908 138.516C478.908 137.425 479.108 136.509 479.509 135.767C479.909 135.026 480.455 134.429 481.145 133.977C481.835 133.526 482.62 133.185 483.497 132.955C484.384 132.724 485.313 132.562 486.284 132.469C487.426 132.349 488.347 132.239 489.046 132.136C489.745 132.026 490.252 131.864 490.567 131.651C490.882 131.437 491.04 131.122 491.04 130.705V130.628C491.04 129.818 490.784 129.192 490.273 128.749C489.77 128.305 489.054 128.084 488.125 128.084C487.145 128.084 486.365 128.301 485.786 128.736C485.206 129.162 484.823 129.699 484.635 130.347L479.598 129.938C479.854 128.744 480.357 127.713 481.107 126.844C481.857 125.966 482.824 125.293 484.009 124.824C485.202 124.347 486.583 124.108 488.151 124.108C489.242 124.108 490.286 124.236 491.283 124.491C492.289 124.747 493.179 125.143 493.955 125.68C494.739 126.217 495.357 126.908 495.808 127.751C496.26 128.587 496.486 129.588 496.486 130.756V144H491.321V141.277H491.168C490.853 141.891 490.431 142.432 489.902 142.901C489.374 143.361 488.739 143.723 487.997 143.987C487.256 144.243 486.399 144.371 485.428 144.371ZM486.987 140.612C487.789 140.612 488.496 140.455 489.11 140.139C489.723 139.815 490.205 139.381 490.554 138.835C490.904 138.29 491.078 137.672 491.078 136.982V134.898C490.908 135.009 490.674 135.111 490.375 135.205C490.085 135.29 489.757 135.371 489.391 135.447C489.024 135.516 488.658 135.58 488.291 135.639C487.925 135.69 487.593 135.737 487.294 135.78C486.655 135.874 486.097 136.023 485.62 136.227C485.142 136.432 484.772 136.709 484.507 137.058C484.243 137.399 484.111 137.825 484.111 138.337C484.111 139.078 484.38 139.645 484.916 140.037C485.462 140.42 486.152 140.612 486.987 140.612ZM499.271 144V124.364H504.551V127.79H504.756C505.114 126.571 505.714 125.651 506.558 125.028C507.402 124.398 508.373 124.082 509.473 124.082C509.746 124.082 510.04 124.099 510.355 124.134C510.67 124.168 510.947 124.214 511.186 124.274V129.107C510.93 129.03 510.577 128.962 510.125 128.902C509.673 128.842 509.26 128.812 508.885 128.812C508.084 128.812 507.368 128.987 506.737 129.337C506.115 129.678 505.621 130.155 505.254 130.768C504.896 131.382 504.717 132.089 504.717 132.891V144H499.271ZM523.991 124.364V128.455H512.165V124.364H523.991ZM514.85 119.659H520.296V137.966C520.296 138.469 520.373 138.861 520.526 139.142C520.68 139.415 520.893 139.607 521.165 139.717C521.447 139.828 521.77 139.884 522.137 139.884C522.393 139.884 522.648 139.862 522.904 139.82C523.16 139.768 523.356 139.73 523.492 139.705L524.349 143.757C524.076 143.842 523.692 143.94 523.198 144.051C522.704 144.17 522.103 144.243 521.395 144.268C520.083 144.32 518.932 144.145 517.944 143.744C516.964 143.344 516.201 142.722 515.655 141.878C515.11 141.034 514.841 139.969 514.85 138.682V119.659ZM534.836 144.384C532.816 144.384 531.078 143.974 529.62 143.156C528.171 142.33 527.055 141.162 526.271 139.653C525.487 138.136 525.095 136.342 525.095 134.271C525.095 132.251 525.487 130.479 526.271 128.953C527.055 127.428 528.159 126.239 529.582 125.386C531.014 124.534 532.693 124.108 534.619 124.108C535.914 124.108 537.12 124.317 538.237 124.734C539.362 125.143 540.342 125.761 541.177 126.588C542.021 127.415 542.677 128.455 543.146 129.707C543.615 130.952 543.849 132.409 543.849 134.08V135.575H527.268V132.2H538.723C538.723 131.416 538.552 130.722 538.211 130.116C537.87 129.511 537.397 129.038 536.792 128.697C536.196 128.348 535.501 128.173 534.708 128.173C533.882 128.173 533.149 128.365 532.509 128.749C531.879 129.124 531.384 129.631 531.026 130.27C530.669 130.901 530.485 131.604 530.477 132.379V135.588C530.477 136.56 530.656 137.399 531.014 138.107C531.38 138.814 531.896 139.359 532.561 139.743C533.225 140.126 534.014 140.318 534.926 140.318C535.531 140.318 536.085 140.233 536.588 140.062C537.09 139.892 537.521 139.636 537.879 139.295C538.237 138.955 538.509 138.537 538.697 138.043L543.734 138.375C543.478 139.585 542.954 140.642 542.161 141.545C541.377 142.44 540.363 143.139 539.119 143.642C537.883 144.136 536.455 144.384 534.836 144.384ZM545.963 144V124.364H551.243V127.79H551.447C551.805 126.571 552.406 125.651 553.25 125.028C554.094 124.398 555.065 124.082 556.165 124.082C556.437 124.082 556.731 124.099 557.047 124.134C557.362 124.168 557.639 124.214 557.878 124.274V129.107C557.622 129.03 557.268 128.962 556.817 128.902C556.365 128.842 555.952 128.812 555.577 128.812C554.775 128.812 554.059 128.987 553.429 129.337C552.807 129.678 552.312 130.155 551.946 130.768C551.588 131.382 551.409 132.089 551.409 132.891V144H545.963ZM566.248 144V117.818H571.783V129.362H572.128L581.55 117.818H588.185L578.469 129.541L588.3 144H581.678L574.506 133.236L571.783 136.56V144H566.248ZM590.756 144V124.364H596.202V144H590.756ZM593.492 121.832C592.682 121.832 591.988 121.564 591.408 121.027C590.837 120.482 590.552 119.83 590.552 119.071C590.552 118.321 590.837 117.678 591.408 117.141C591.988 116.595 592.682 116.322 593.492 116.322C594.302 116.322 594.992 116.595 595.563 117.141C596.143 117.678 596.432 118.321 596.432 119.071C596.432 119.83 596.143 120.482 595.563 121.027C594.992 121.564 594.302 121.832 593.492 121.832ZM609.569 124.364V128.455H597.744V124.364H609.569ZM600.429 119.659H605.875V137.966C605.875 138.469 605.951 138.861 606.105 139.142C606.258 139.415 606.471 139.607 606.744 139.717C607.025 139.828 607.349 139.884 607.716 139.884C607.971 139.884 608.227 139.862 608.483 139.82C608.738 139.768 608.934 139.73 609.071 139.705L609.927 143.757C609.655 143.842 609.271 143.94 608.777 144.051C608.282 144.17 607.682 144.243 606.974 144.268C605.662 144.32 604.511 144.145 603.523 143.744C602.542 143.344 601.78 142.722 601.234 141.878C600.689 141.034 600.42 139.969 600.429 138.682V119.659Z" fill="black"/>
<path d="M143.647 176V158.545H146.281V166.881H146.494L153.815 158.545H157.13L150.091 166.403L157.156 176H153.986L148.343 168.202L146.281 170.571V176H143.647ZM159.241 176V162.909H161.789V176H159.241ZM160.528 160.889C160.084 160.889 159.704 160.741 159.386 160.446C159.073 160.145 158.917 159.787 158.917 159.372C158.917 158.952 159.073 158.594 159.386 158.298C159.704 157.997 160.084 157.847 160.528 157.847C160.971 157.847 161.349 157.997 161.661 158.298C161.979 158.594 162.138 158.952 162.138 159.372C162.138 159.787 161.979 160.145 161.661 160.446C161.349 160.741 160.971 160.889 160.528 160.889ZM168.067 176.29C167.237 176.29 166.487 176.136 165.817 175.83C165.146 175.517 164.615 175.065 164.223 174.474C163.837 173.884 163.644 173.159 163.644 172.301C163.644 171.562 163.786 170.955 164.07 170.477C164.354 170 164.737 169.622 165.22 169.344C165.703 169.065 166.243 168.855 166.84 168.713C167.436 168.571 168.044 168.463 168.664 168.389C169.448 168.298 170.084 168.224 170.573 168.168C171.061 168.105 171.416 168.006 171.638 167.869C171.86 167.733 171.97 167.511 171.97 167.205V167.145C171.97 166.401 171.76 165.824 171.34 165.415C170.925 165.006 170.306 164.801 169.482 164.801C168.624 164.801 167.948 164.991 167.453 165.372C166.965 165.747 166.627 166.165 166.439 166.625L164.044 166.08C164.328 165.284 164.743 164.642 165.289 164.153C165.84 163.659 166.473 163.301 167.189 163.08C167.905 162.852 168.658 162.739 169.448 162.739C169.97 162.739 170.524 162.801 171.11 162.926C171.7 163.045 172.252 163.267 172.763 163.591C173.28 163.915 173.703 164.378 174.033 164.98C174.362 165.577 174.527 166.352 174.527 167.307V176H172.039V174.21H171.936C171.771 174.54 171.524 174.864 171.195 175.182C170.865 175.5 170.442 175.764 169.925 175.974C169.408 176.185 168.789 176.29 168.067 176.29ZM168.621 174.244C169.325 174.244 169.928 174.105 170.428 173.827C170.933 173.548 171.317 173.185 171.578 172.736C171.845 172.281 171.979 171.795 171.979 171.278V169.591C171.888 169.682 171.712 169.767 171.45 169.847C171.195 169.92 170.902 169.986 170.573 170.043C170.243 170.094 169.922 170.142 169.61 170.188C169.297 170.227 169.036 170.261 168.825 170.29C168.331 170.352 167.879 170.457 167.47 170.605C167.067 170.753 166.743 170.966 166.499 171.244C166.26 171.517 166.141 171.881 166.141 172.335C166.141 172.966 166.374 173.443 166.84 173.767C167.306 174.085 167.899 174.244 168.621 174.244ZM179.51 168.227V176H176.961V162.909H179.407V165.04H179.569C179.87 164.347 180.342 163.79 180.984 163.369C181.632 162.949 182.447 162.739 183.43 162.739C184.322 162.739 185.103 162.926 185.774 163.301C186.444 163.67 186.964 164.222 187.334 164.955C187.703 165.687 187.887 166.594 187.887 167.673V176H185.339V167.98C185.339 167.031 185.092 166.29 184.598 165.756C184.103 165.216 183.424 164.946 182.561 164.946C181.97 164.946 181.444 165.074 180.984 165.33C180.53 165.585 180.169 165.96 179.902 166.455C179.64 166.943 179.51 167.534 179.51 168.227ZM190.55 176V158.545H193.183V166.881H193.396L200.717 158.545H204.033L196.993 166.403L204.058 176H200.888L195.246 168.202L193.183 170.571V176H190.55ZM206.143 176V162.909H208.691V176H206.143ZM207.43 160.889C206.987 160.889 206.606 160.741 206.288 160.446C205.975 160.145 205.819 159.787 205.819 159.372C205.819 158.952 205.975 158.594 206.288 158.298C206.606 157.997 206.987 157.847 207.43 157.847C207.873 157.847 208.251 157.997 208.563 158.298C208.882 158.594 209.041 158.952 209.041 159.372C209.041 159.787 208.882 160.145 208.563 160.446C208.251 160.741 207.873 160.889 207.43 160.889ZM217.27 162.909V164.955H210.12V162.909H217.27ZM212.037 159.773H214.586V172.156C214.586 172.651 214.659 173.023 214.807 173.273C214.955 173.517 215.145 173.685 215.378 173.776C215.617 173.861 215.875 173.903 216.154 173.903C216.358 173.903 216.537 173.889 216.691 173.861C216.844 173.832 216.963 173.81 217.049 173.793L217.509 175.898C217.361 175.955 217.151 176.011 216.878 176.068C216.605 176.131 216.265 176.165 215.855 176.17C215.185 176.182 214.56 176.062 213.98 175.812C213.401 175.562 212.932 175.176 212.574 174.653C212.216 174.131 212.037 173.474 212.037 172.685V159.773ZM224.521 176V162.909H227.069V176H224.521ZM225.808 160.889C225.364 160.889 224.984 160.741 224.666 160.446C224.353 160.145 224.197 159.787 224.197 159.372C224.197 158.952 224.353 158.594 224.666 158.298C224.984 157.997 225.364 157.847 225.808 157.847C226.251 157.847 226.629 157.997 226.941 158.298C227.259 158.594 227.418 158.952 227.418 159.372C227.418 159.787 227.259 160.145 226.941 160.446C226.629 160.741 226.251 160.889 225.808 160.889ZM239.347 166.105L237.037 166.514C236.941 166.219 236.787 165.937 236.577 165.67C236.373 165.403 236.094 165.185 235.742 165.014C235.39 164.844 234.949 164.759 234.421 164.759C233.699 164.759 233.097 164.92 232.614 165.244C232.131 165.562 231.89 165.974 231.89 166.48C231.89 166.918 232.051 167.27 232.375 167.537C232.699 167.804 233.222 168.023 233.944 168.193L236.023 168.67C237.228 168.949 238.125 169.378 238.716 169.957C239.307 170.537 239.603 171.29 239.603 172.216C239.603 173 239.375 173.699 238.921 174.312C238.472 174.92 237.844 175.398 237.037 175.744C236.236 176.091 235.307 176.264 234.25 176.264C232.784 176.264 231.588 175.952 230.662 175.327C229.736 174.696 229.168 173.801 228.958 172.642L231.421 172.267C231.574 172.909 231.89 173.395 232.367 173.724C232.844 174.048 233.466 174.21 234.233 174.21C235.069 174.21 235.736 174.037 236.236 173.69C236.736 173.338 236.986 172.909 236.986 172.403C236.986 171.994 236.833 171.651 236.526 171.372C236.225 171.094 235.762 170.884 235.137 170.741L232.921 170.256C231.699 169.977 230.796 169.534 230.211 168.926C229.631 168.318 229.341 167.548 229.341 166.616C229.341 165.844 229.557 165.168 229.989 164.588C230.421 164.009 231.017 163.557 231.779 163.233C232.54 162.903 233.412 162.739 234.395 162.739C235.81 162.739 236.924 163.045 237.736 163.659C238.549 164.267 239.086 165.082 239.347 166.105ZM248.447 180.909C248.066 180.909 247.72 180.878 247.407 180.815C247.095 180.759 246.862 180.696 246.708 180.628L247.322 178.54C247.788 178.665 248.203 178.719 248.566 178.702C248.93 178.685 249.251 178.548 249.529 178.293C249.813 178.037 250.063 177.619 250.279 177.04L250.595 176.17L245.805 162.909H248.532L251.847 173.068H251.984L255.299 162.909H258.035L252.64 177.747C252.39 178.429 252.072 179.006 251.685 179.477C251.299 179.955 250.839 180.313 250.305 180.551C249.771 180.79 249.151 180.909 248.447 180.909ZM264.539 176.264C263.311 176.264 262.24 175.983 261.326 175.42C260.411 174.858 259.701 174.071 259.195 173.06C258.689 172.048 258.436 170.866 258.436 169.514C258.436 168.156 258.689 166.969 259.195 165.952C259.701 164.935 260.411 164.145 261.326 163.582C262.24 163.02 263.311 162.739 264.539 162.739C265.766 162.739 266.837 163.02 267.752 163.582C268.667 164.145 269.377 164.935 269.882 165.952C270.388 166.969 270.641 168.156 270.641 169.514C270.641 170.866 270.388 172.048 269.882 173.06C269.377 174.071 268.667 174.858 267.752 175.42C266.837 175.983 265.766 176.264 264.539 176.264ZM264.547 174.125C265.343 174.125 266.002 173.915 266.524 173.494C267.047 173.074 267.434 172.514 267.684 171.815C267.939 171.116 268.067 170.347 268.067 169.506C268.067 168.67 267.939 167.903 267.684 167.205C267.434 166.5 267.047 165.935 266.524 165.509C266.002 165.082 265.343 164.869 264.547 164.869C263.746 164.869 263.081 165.082 262.553 165.509C262.03 165.935 261.641 166.5 261.385 167.205C261.135 167.903 261.01 168.67 261.01 169.506C261.01 170.347 261.135 171.116 261.385 171.815C261.641 172.514 262.03 173.074 262.553 173.494C263.081 173.915 263.746 174.125 264.547 174.125ZM280.818 170.571V162.909H283.375V176H280.869V173.733H280.733C280.432 174.432 279.949 175.014 279.284 175.48C278.625 175.94 277.804 176.17 276.821 176.17C275.98 176.17 275.236 175.986 274.588 175.616C273.946 175.241 273.44 174.688 273.071 173.955C272.707 173.222 272.525 172.315 272.525 171.236V162.909H275.074V170.929C275.074 171.821 275.321 172.531 275.815 173.06C276.31 173.588 276.952 173.852 277.741 173.852C278.219 173.852 278.693 173.733 279.165 173.494C279.642 173.256 280.037 172.895 280.349 172.412C280.667 171.929 280.824 171.315 280.818 170.571ZM285.839 176V162.909H288.302V164.989H288.438C288.677 164.284 289.097 163.73 289.7 163.327C290.308 162.918 290.995 162.713 291.762 162.713C291.921 162.713 292.109 162.719 292.325 162.73C292.546 162.741 292.72 162.756 292.845 162.773V165.21C292.742 165.182 292.56 165.151 292.299 165.116C292.038 165.077 291.776 165.057 291.515 165.057C290.913 165.057 290.376 165.185 289.904 165.44C289.438 165.69 289.069 166.04 288.796 166.489C288.524 166.932 288.387 167.437 288.387 168.006V176H285.839ZM304.97 181.182C303.93 181.182 303.035 181.045 302.285 180.773C301.541 180.5 300.933 180.139 300.461 179.69C299.99 179.241 299.638 178.75 299.405 178.216L301.595 177.312C301.748 177.562 301.953 177.827 302.209 178.105C302.47 178.389 302.822 178.631 303.265 178.83C303.714 179.028 304.291 179.128 304.996 179.128C305.961 179.128 306.76 178.892 307.39 178.42C308.021 177.955 308.336 177.21 308.336 176.188V173.614H308.175C308.021 173.892 307.8 174.202 307.51 174.543C307.226 174.884 306.834 175.179 306.334 175.429C305.834 175.679 305.183 175.804 304.382 175.804C303.348 175.804 302.416 175.562 301.586 175.08C300.763 174.591 300.109 173.872 299.626 172.923C299.149 171.969 298.91 170.795 298.91 169.403C298.91 168.011 299.146 166.818 299.618 165.824C300.095 164.83 300.748 164.068 301.578 163.54C302.407 163.006 303.348 162.739 304.399 162.739C305.211 162.739 305.868 162.875 306.368 163.148C306.868 163.415 307.257 163.727 307.535 164.085C307.819 164.443 308.038 164.759 308.192 165.031H308.379V162.909H310.876V176.29C310.876 177.415 310.615 178.338 310.092 179.06C309.569 179.781 308.862 180.315 307.97 180.662C307.084 181.009 306.084 181.182 304.97 181.182ZM304.944 173.69C305.677 173.69 306.297 173.52 306.802 173.179C307.314 172.832 307.7 172.338 307.961 171.696C308.229 171.048 308.362 170.273 308.362 169.369C308.362 168.489 308.231 167.713 307.97 167.043C307.709 166.372 307.325 165.849 306.819 165.474C306.314 165.094 305.689 164.903 304.944 164.903C304.177 164.903 303.538 165.102 303.027 165.5C302.515 165.892 302.129 166.426 301.868 167.102C301.612 167.778 301.484 168.534 301.484 169.369C301.484 170.227 301.615 170.98 301.876 171.628C302.138 172.276 302.524 172.781 303.035 173.145C303.552 173.509 304.189 173.69 304.944 173.69ZM318.848 176.264C317.621 176.264 316.55 175.983 315.635 175.42C314.72 174.858 314.01 174.071 313.504 173.06C312.999 172.048 312.746 170.866 312.746 169.514C312.746 168.156 312.999 166.969 313.504 165.952C314.01 164.935 314.72 164.145 315.635 163.582C316.55 163.02 317.621 162.739 318.848 162.739C320.075 162.739 321.146 163.02 322.061 163.582C322.976 164.145 323.686 164.935 324.192 165.952C324.697 166.969 324.95 168.156 324.95 169.514C324.95 170.866 324.697 172.048 324.192 173.06C323.686 174.071 322.976 174.858 322.061 175.42C321.146 175.983 320.075 176.264 318.848 176.264ZM318.857 174.125C319.652 174.125 320.311 173.915 320.834 173.494C321.357 173.074 321.743 172.514 321.993 171.815C322.249 171.116 322.376 170.347 322.376 169.506C322.376 168.67 322.249 167.903 321.993 167.205C321.743 166.5 321.357 165.935 320.834 165.509C320.311 165.082 319.652 164.869 318.857 164.869C318.055 164.869 317.391 165.082 316.862 165.509C316.34 165.935 315.95 166.5 315.695 167.205C315.445 167.903 315.32 168.67 315.32 169.506C315.32 170.347 315.445 171.116 315.695 171.815C315.95 172.514 316.34 173.074 316.862 173.494C317.391 173.915 318.055 174.125 318.857 174.125ZM334.548 167.52V169.727H326.809V167.52H334.548ZM343.095 162.909V164.955H335.944V162.909H343.095ZM337.862 159.773H340.41V172.156C340.41 172.651 340.484 173.023 340.632 173.273C340.78 173.517 340.97 173.685 341.203 173.776C341.442 173.861 341.7 173.903 341.978 173.903C342.183 173.903 342.362 173.889 342.515 173.861C342.669 173.832 342.788 173.81 342.873 173.793L343.334 175.898C343.186 175.955 342.976 176.011 342.703 176.068C342.43 176.131 342.089 176.165 341.68 176.17C341.01 176.182 340.385 176.062 339.805 175.812C339.226 175.562 338.757 175.176 338.399 174.653C338.041 174.131 337.862 173.474 337.862 172.685V159.773ZM350.327 176.264C349.1 176.264 348.029 175.983 347.114 175.42C346.2 174.858 345.489 174.071 344.984 173.06C344.478 172.048 344.225 170.866 344.225 169.514C344.225 168.156 344.478 166.969 344.984 165.952C345.489 164.935 346.2 164.145 347.114 163.582C348.029 163.02 349.1 162.739 350.327 162.739C351.555 162.739 352.626 163.02 353.54 163.582C354.455 164.145 355.165 164.935 355.671 165.952C356.177 166.969 356.43 168.156 356.43 169.514C356.43 170.866 356.177 172.048 355.671 173.06C355.165 174.071 354.455 174.858 353.54 175.42C352.626 175.983 351.555 176.264 350.327 176.264ZM350.336 174.125C351.131 174.125 351.79 173.915 352.313 173.494C352.836 173.074 353.222 172.514 353.472 171.815C353.728 171.116 353.856 170.347 353.856 169.506C353.856 168.67 353.728 167.903 353.472 167.205C353.222 166.5 352.836 165.935 352.313 165.509C351.79 165.082 351.131 164.869 350.336 164.869C349.535 164.869 348.87 165.082 348.342 165.509C347.819 165.935 347.43 166.5 347.174 167.205C346.924 167.903 346.799 168.67 346.799 169.506C346.799 170.347 346.924 171.116 347.174 171.815C347.43 172.514 347.819 173.074 348.342 173.494C348.87 173.915 349.535 174.125 350.336 174.125ZM373.515 166.105L371.206 166.514C371.109 166.219 370.956 165.937 370.746 165.67C370.541 165.403 370.263 165.185 369.91 165.014C369.558 164.844 369.118 164.759 368.589 164.759C367.868 164.759 367.265 164.92 366.782 165.244C366.299 165.562 366.058 165.974 366.058 166.48C366.058 166.918 366.22 167.27 366.544 167.537C366.868 167.804 367.39 168.023 368.112 168.193L370.192 168.67C371.396 168.949 372.294 169.378 372.885 169.957C373.476 170.537 373.771 171.29 373.771 172.216C373.771 173 373.544 173.699 373.089 174.312C372.64 174.92 372.013 175.398 371.206 175.744C370.405 176.091 369.476 176.264 368.419 176.264C366.953 176.264 365.757 175.952 364.831 175.327C363.905 174.696 363.336 173.801 363.126 172.642L365.589 172.267C365.743 172.909 366.058 173.395 366.535 173.724C367.013 174.048 367.635 174.21 368.402 174.21C369.237 174.21 369.905 174.037 370.405 173.69C370.905 173.338 371.155 172.909 371.155 172.403C371.155 171.994 371.001 171.651 370.694 171.372C370.393 171.094 369.93 170.884 369.305 170.741L367.089 170.256C365.868 169.977 364.964 169.534 364.379 168.926C363.799 168.318 363.51 167.548 363.51 166.616C363.51 165.844 363.726 165.168 364.157 164.588C364.589 164.009 365.186 163.557 365.947 163.233C366.709 162.903 367.581 162.739 368.564 162.739C369.978 162.739 371.092 163.045 371.905 163.659C372.717 164.267 373.254 165.082 373.515 166.105ZM381.724 162.909V164.955H374.573V162.909H381.724ZM376.491 159.773H379.039V172.156C379.039 172.651 379.113 173.023 379.261 173.273C379.408 173.517 379.599 173.685 379.832 173.776C380.07 173.861 380.329 173.903 380.607 173.903C380.812 173.903 380.991 173.889 381.144 173.861C381.298 173.832 381.417 173.81 381.502 173.793L381.962 175.898C381.815 175.955 381.604 176.011 381.332 176.068C381.059 176.131 380.718 176.165 380.309 176.17C379.638 176.182 379.013 176.062 378.434 175.812C377.854 175.562 377.386 175.176 377.028 174.653C376.67 174.131 376.491 173.474 376.491 172.685V159.773ZM387.392 176.29C386.563 176.29 385.813 176.136 385.142 175.83C384.472 175.517 383.941 175.065 383.549 174.474C383.162 173.884 382.969 173.159 382.969 172.301C382.969 171.562 383.111 170.955 383.395 170.477C383.679 170 384.063 169.622 384.546 169.344C385.029 169.065 385.568 168.855 386.165 168.713C386.762 168.571 387.37 168.463 387.989 168.389C388.773 168.298 389.409 168.224 389.898 168.168C390.387 168.105 390.742 168.006 390.963 167.869C391.185 167.733 391.296 167.511 391.296 167.205V167.145C391.296 166.401 391.085 165.824 390.665 165.415C390.25 165.006 389.631 164.801 388.807 164.801C387.949 164.801 387.273 164.991 386.779 165.372C386.29 165.747 385.952 166.165 385.764 166.625L383.37 166.08C383.654 165.284 384.068 164.642 384.614 164.153C385.165 163.659 385.799 163.301 386.514 163.08C387.23 162.852 387.983 162.739 388.773 162.739C389.296 162.739 389.85 162.801 390.435 162.926C391.026 163.045 391.577 163.267 392.088 163.591C392.605 163.915 393.029 164.378 393.358 164.98C393.688 165.577 393.852 166.352 393.852 167.307V176H391.364V174.21H391.262C391.097 174.54 390.85 174.864 390.52 175.182C390.191 175.5 389.767 175.764 389.25 175.974C388.733 176.185 388.114 176.29 387.392 176.29ZM387.946 174.244C388.651 174.244 389.253 174.105 389.753 173.827C390.259 173.548 390.642 173.185 390.904 172.736C391.171 172.281 391.304 171.795 391.304 171.278V169.591C391.213 169.682 391.037 169.767 390.776 169.847C390.52 169.92 390.227 169.986 389.898 170.043C389.568 170.094 389.247 170.142 388.935 170.188C388.622 170.227 388.361 170.261 388.151 170.29C387.656 170.352 387.205 170.457 386.796 170.605C386.392 170.753 386.068 170.966 385.824 171.244C385.585 171.517 385.466 171.881 385.466 172.335C385.466 172.966 385.699 173.443 386.165 173.767C386.631 174.085 387.225 174.244 387.946 174.244ZM396.287 176V162.909H398.75V164.989H398.886C399.125 164.284 399.545 163.73 400.147 163.327C400.755 162.918 401.443 162.713 402.21 162.713C402.369 162.713 402.557 162.719 402.772 162.73C402.994 162.741 403.167 162.756 403.292 162.773V165.21C403.19 165.182 403.008 165.151 402.747 165.116C402.486 165.077 402.224 165.057 401.963 165.057C401.361 165.057 400.824 165.185 400.352 165.44C399.886 165.69 399.517 166.04 399.244 166.489C398.971 166.932 398.835 167.437 398.835 168.006V176H396.287ZM411.422 162.909V164.955H404.271V162.909H411.422ZM406.189 159.773H408.737V172.156C408.737 172.651 408.811 173.023 408.959 173.273C409.106 173.517 409.297 173.685 409.53 173.776C409.768 173.861 410.027 173.903 410.305 173.903C410.51 173.903 410.689 173.889 410.842 173.861C410.996 173.832 411.115 173.81 411.2 173.793L411.66 175.898C411.513 175.955 411.303 176.011 411.03 176.068C410.757 176.131 410.416 176.165 410.007 176.17C409.337 176.182 408.712 176.062 408.132 175.812C407.553 175.562 407.084 175.176 406.726 174.653C406.368 174.131 406.189 173.474 406.189 172.685V159.773ZM418.782 176.264C417.492 176.264 416.382 175.989 415.45 175.438C414.524 174.881 413.808 174.099 413.302 173.094C412.802 172.082 412.552 170.898 412.552 169.54C412.552 168.199 412.802 167.017 413.302 165.994C413.808 164.972 414.512 164.173 415.416 163.599C416.325 163.026 417.387 162.739 418.603 162.739C419.342 162.739 420.058 162.861 420.751 163.105C421.444 163.349 422.066 163.733 422.617 164.256C423.168 164.778 423.603 165.457 423.921 166.293C424.24 167.122 424.399 168.131 424.399 169.318V170.222H413.992V168.312H421.901C421.901 167.642 421.765 167.048 421.492 166.531C421.22 166.009 420.836 165.597 420.342 165.295C419.853 164.994 419.279 164.844 418.62 164.844C417.904 164.844 417.279 165.02 416.745 165.372C416.217 165.719 415.808 166.173 415.518 166.736C415.234 167.293 415.092 167.898 415.092 168.551V170.043C415.092 170.918 415.245 171.662 415.552 172.276C415.865 172.889 416.299 173.358 416.856 173.682C417.413 174 418.063 174.159 418.808 174.159C419.291 174.159 419.731 174.091 420.129 173.955C420.526 173.812 420.87 173.602 421.16 173.324C421.45 173.045 421.671 172.702 421.825 172.293L424.237 172.727C424.043 173.437 423.697 174.06 423.197 174.594C422.703 175.122 422.08 175.534 421.33 175.83C420.586 176.119 419.737 176.264 418.782 176.264ZM426.266 176V162.909H428.729V164.989H428.865C429.104 164.284 429.525 163.73 430.127 163.327C430.735 162.918 431.422 162.713 432.189 162.713C432.348 162.713 432.536 162.719 432.752 162.73C432.973 162.741 433.147 162.756 433.272 162.773V165.21C433.169 165.182 432.988 165.151 432.726 165.116C432.465 165.077 432.204 165.057 431.942 165.057C431.34 165.057 430.803 165.185 430.331 165.44C429.865 165.69 429.496 166.04 429.223 166.489C428.951 166.932 428.814 167.437 428.814 168.006V176H426.266ZM442.252 171.56L442.235 168.449H442.678L447.894 162.909H450.945L444.997 169.216H444.596L442.252 171.56ZM439.909 176V158.545H442.457V176H439.909ZM448.176 176L443.488 169.778L445.244 167.997L451.303 176H448.176ZM452.308 176V162.909H454.856V176H452.308ZM453.595 160.889C453.152 160.889 452.771 160.741 452.453 160.446C452.14 160.145 451.984 159.787 451.984 159.372C451.984 158.952 452.14 158.594 452.453 158.298C452.771 157.997 453.152 157.847 453.595 157.847C454.038 157.847 454.416 157.997 454.728 158.298C455.047 158.594 455.206 158.952 455.206 159.372C455.206 159.787 455.047 160.145 454.728 160.446C454.416 160.741 454.038 160.889 453.595 160.889ZM463.435 162.909V164.955H456.285V162.909H463.435ZM458.202 159.773H460.751V172.156C460.751 172.651 460.824 173.023 460.972 173.273C461.12 173.517 461.31 173.685 461.543 173.776C461.782 173.861 462.04 173.903 462.319 173.903C462.523 173.903 462.702 173.889 462.856 173.861C463.009 173.832 463.128 173.81 463.214 173.793L463.674 175.898C463.526 175.955 463.316 176.011 463.043 176.068C462.77 176.131 462.43 176.165 462.02 176.17C461.35 176.182 460.725 176.062 460.145 175.812C459.566 175.562 459.097 175.176 458.739 174.653C458.381 174.131 458.202 173.474 458.202 172.685V159.773ZM476.916 162.909V164.955H469.518V162.909H476.916ZM471.547 176V161.392C471.547 160.574 471.725 159.895 472.083 159.355C472.441 158.81 472.916 158.403 473.507 158.136C474.098 157.864 474.74 157.727 475.433 157.727C475.944 157.727 476.382 157.77 476.745 157.855C477.109 157.935 477.379 158.009 477.555 158.077L476.958 160.139C476.839 160.105 476.686 160.065 476.498 160.02C476.311 159.969 476.083 159.943 475.816 159.943C475.197 159.943 474.754 160.097 474.487 160.403C474.225 160.71 474.095 161.153 474.095 161.733V176H471.547ZM483.584 176.264C482.356 176.264 481.285 175.983 480.371 175.42C479.456 174.858 478.746 174.071 478.24 173.06C477.734 172.048 477.481 170.866 477.481 169.514C477.481 168.156 477.734 166.969 478.24 165.952C478.746 164.935 479.456 164.145 480.371 163.582C481.285 163.02 482.356 162.739 483.584 162.739C484.811 162.739 485.882 163.02 486.797 163.582C487.711 164.145 488.422 164.935 488.927 165.952C489.433 166.969 489.686 168.156 489.686 169.514C489.686 170.866 489.433 172.048 488.927 173.06C488.422 174.071 487.711 174.858 486.797 175.42C485.882 175.983 484.811 176.264 483.584 176.264ZM483.592 174.125C484.388 174.125 485.047 173.915 485.569 173.494C486.092 173.074 486.479 172.514 486.729 171.815C486.984 171.116 487.112 170.347 487.112 169.506C487.112 168.67 486.984 167.903 486.729 167.205C486.479 166.5 486.092 165.935 485.569 165.509C485.047 165.082 484.388 164.869 483.592 164.869C482.791 164.869 482.126 165.082 481.598 165.509C481.075 165.935 480.686 166.5 480.43 167.205C480.18 167.903 480.055 168.67 480.055 169.506C480.055 170.347 480.18 171.116 480.43 171.815C480.686 172.514 481.075 173.074 481.598 173.494C482.126 173.915 482.791 174.125 483.592 174.125ZM491.57 176V162.909H494.033V164.989H494.17C494.408 164.284 494.829 163.73 495.431 163.327C496.039 162.918 496.727 162.713 497.494 162.713C497.653 162.713 497.84 162.719 498.056 162.73C498.278 162.741 498.451 162.756 498.576 162.773V165.21C498.474 165.182 498.292 165.151 498.031 165.116C497.769 165.077 497.508 165.057 497.247 165.057C496.644 165.057 496.107 165.185 495.636 165.44C495.17 165.69 494.801 166.04 494.528 166.489C494.255 166.932 494.119 167.437 494.119 168.006V176H491.57ZM505.213 176V162.909H507.676V164.989H507.812C508.051 164.284 508.471 163.73 509.074 163.327C509.682 162.918 510.369 162.713 511.136 162.713C511.295 162.713 511.483 162.719 511.699 162.73C511.92 162.741 512.094 162.756 512.219 162.773V165.21C512.116 165.182 511.934 165.151 511.673 165.116C511.412 165.077 511.15 165.057 510.889 165.057C510.287 165.057 509.75 165.185 509.278 165.44C508.812 165.69 508.443 166.04 508.17 166.489C507.898 166.932 507.761 167.437 507.761 168.006V176H505.213ZM517.156 176.29C516.327 176.29 515.577 176.136 514.906 175.83C514.236 175.517 513.705 175.065 513.313 174.474C512.926 173.884 512.733 173.159 512.733 172.301C512.733 171.562 512.875 170.955 513.159 170.477C513.443 170 513.827 169.622 514.31 169.344C514.793 169.065 515.332 168.855 515.929 168.713C516.526 168.571 517.134 168.463 517.753 168.389C518.537 168.298 519.173 168.224 519.662 168.168C520.151 168.105 520.506 168.006 520.727 167.869C520.949 167.733 521.06 167.511 521.06 167.205V167.145C521.06 166.401 520.85 165.824 520.429 165.415C520.014 165.006 519.395 164.801 518.571 164.801C517.713 164.801 517.037 164.991 516.543 165.372C516.054 165.747 515.716 166.165 515.528 166.625L513.134 166.08C513.418 165.284 513.832 164.642 514.378 164.153C514.929 163.659 515.563 163.301 516.278 163.08C516.994 162.852 517.747 162.739 518.537 162.739C519.06 162.739 519.614 162.801 520.199 162.926C520.79 163.045 521.341 163.267 521.852 163.591C522.369 163.915 522.793 164.378 523.122 164.98C523.452 165.577 523.617 166.352 523.617 167.307V176H521.128V174.21H521.026C520.861 174.54 520.614 174.864 520.284 175.182C519.955 175.5 519.531 175.764 519.014 175.974C518.497 176.185 517.878 176.29 517.156 176.29ZM517.71 174.244C518.415 174.244 519.017 174.105 519.517 173.827C520.023 173.548 520.406 173.185 520.668 172.736C520.935 172.281 521.068 171.795 521.068 171.278V169.591C520.977 169.682 520.801 169.767 520.54 169.847C520.284 169.92 519.992 169.986 519.662 170.043C519.332 170.094 519.011 170.142 518.699 170.188C518.386 170.227 518.125 170.261 517.915 170.29C517.421 170.352 516.969 170.457 516.56 170.605C516.156 170.753 515.832 170.966 515.588 171.244C515.35 171.517 515.23 171.881 515.23 172.335C515.23 172.966 515.463 173.443 515.929 173.767C516.395 174.085 516.989 174.244 517.71 174.244ZM526.051 180.909V162.909H528.539V165.031H528.752C528.9 164.759 529.113 164.443 529.392 164.085C529.67 163.727 530.056 163.415 530.551 163.148C531.045 162.875 531.698 162.739 532.511 162.739C533.568 162.739 534.511 163.006 535.34 163.54C536.17 164.074 536.821 164.844 537.292 165.849C537.769 166.855 538.008 168.065 538.008 169.48C538.008 170.895 537.772 172.108 537.301 173.119C536.829 174.125 536.181 174.901 535.358 175.446C534.534 175.986 533.593 176.256 532.537 176.256C531.741 176.256 531.09 176.122 530.585 175.855C530.085 175.588 529.693 175.276 529.409 174.918C529.125 174.56 528.906 174.241 528.752 173.963H528.599V180.909H526.051ZM528.548 169.455C528.548 170.375 528.681 171.182 528.948 171.875C529.215 172.568 529.602 173.111 530.108 173.503C530.613 173.889 531.233 174.082 531.965 174.082C532.727 174.082 533.363 173.881 533.875 173.477C534.386 173.068 534.772 172.514 535.034 171.815C535.301 171.116 535.434 170.33 535.434 169.455C535.434 168.591 535.304 167.815 535.042 167.128C534.787 166.44 534.4 165.898 533.883 165.5C533.372 165.102 532.733 164.903 531.965 164.903C531.227 164.903 530.602 165.094 530.09 165.474C529.585 165.855 529.201 166.386 528.94 167.068C528.679 167.75 528.548 168.545 528.548 169.455ZM539.903 176V162.909H542.452V176H539.903ZM541.19 160.889C540.747 160.889 540.366 160.741 540.048 160.446C539.736 160.145 539.579 159.787 539.579 159.372C539.579 158.952 539.736 158.594 540.048 158.298C540.366 157.997 540.747 157.847 541.19 157.847C541.633 157.847 542.011 157.997 542.324 158.298C542.642 158.594 542.801 158.952 542.801 159.372C542.801 159.787 542.642 160.145 542.324 160.446C542.011 160.741 541.633 160.889 541.19 160.889ZM549.82 176.256C548.764 176.256 547.82 175.986 546.991 175.446C546.167 174.901 545.519 174.125 545.048 173.119C544.582 172.108 544.349 170.895 544.349 169.48C544.349 168.065 544.585 166.855 545.056 165.849C545.533 164.844 546.187 164.074 547.016 163.54C547.846 163.006 548.786 162.739 549.837 162.739C550.65 162.739 551.303 162.875 551.798 163.148C552.298 163.415 552.684 163.727 552.957 164.085C553.235 164.443 553.451 164.759 553.604 165.031H553.758V158.545H556.306V176H553.818V173.963H553.604C553.451 174.241 553.229 174.56 552.94 174.918C552.656 175.276 552.264 175.588 551.764 175.855C551.264 176.122 550.616 176.256 549.82 176.256ZM550.383 174.082C551.116 174.082 551.735 173.889 552.241 173.503C552.752 173.111 553.139 172.568 553.4 171.875C553.667 171.182 553.8 170.375 553.8 169.455C553.8 168.545 553.67 167.75 553.408 167.068C553.147 166.386 552.764 165.855 552.258 165.474C551.752 165.094 551.127 164.903 550.383 164.903C549.616 164.903 548.977 165.102 548.465 165.5C547.954 165.898 547.568 166.44 547.306 167.128C547.05 167.815 546.923 168.591 546.923 169.455C546.923 170.33 547.053 171.116 547.315 171.815C547.576 172.514 547.962 173.068 548.474 173.477C548.991 173.881 549.627 174.082 550.383 174.082ZM221.477 205.29C220.647 205.29 219.897 205.136 219.227 204.83C218.556 204.517 218.025 204.065 217.633 203.474C217.247 202.884 217.053 202.159 217.053 201.301C217.053 200.562 217.196 199.955 217.48 199.477C217.764 199 218.147 198.622 218.63 198.344C219.113 198.065 219.653 197.855 220.25 197.713C220.846 197.571 221.454 197.463 222.073 197.389C222.857 197.298 223.494 197.224 223.982 197.168C224.471 197.105 224.826 197.006 225.048 196.869C225.269 196.733 225.38 196.511 225.38 196.205V196.145C225.38 195.401 225.17 194.824 224.75 194.415C224.335 194.006 223.715 193.801 222.892 193.801C222.034 193.801 221.357 193.991 220.863 194.372C220.375 194.747 220.036 195.165 219.849 195.625L217.454 195.08C217.738 194.284 218.153 193.642 218.698 193.153C219.25 192.659 219.883 192.301 220.599 192.08C221.315 191.852 222.068 191.739 222.857 191.739C223.38 191.739 223.934 191.801 224.519 191.926C225.11 192.045 225.661 192.267 226.173 192.591C226.69 192.915 227.113 193.378 227.443 193.98C227.772 194.577 227.937 195.352 227.937 196.307V205H225.448V203.21H225.346C225.181 203.54 224.934 203.864 224.605 204.182C224.275 204.5 223.852 204.764 223.335 204.974C222.818 205.185 222.198 205.29 221.477 205.29ZM222.031 203.244C222.735 203.244 223.338 203.105 223.838 202.827C224.343 202.548 224.727 202.185 224.988 201.736C225.255 201.281 225.389 200.795 225.389 200.278V198.591C225.298 198.682 225.122 198.767 224.86 198.847C224.605 198.92 224.312 198.986 223.982 199.043C223.653 199.094 223.332 199.142 223.019 199.188C222.707 199.227 222.446 199.261 222.235 199.29C221.741 199.352 221.289 199.457 220.88 199.605C220.477 199.753 220.153 199.966 219.909 200.244C219.67 200.517 219.551 200.881 219.551 201.335C219.551 201.966 219.784 202.443 220.25 202.767C220.715 203.085 221.309 203.244 222.031 203.244ZM230.371 209.909V191.909H232.86V194.031H233.073C233.221 193.759 233.434 193.443 233.712 193.085C233.99 192.727 234.377 192.415 234.871 192.148C235.365 191.875 236.019 191.739 236.831 191.739C237.888 191.739 238.831 192.006 239.661 192.54C240.49 193.074 241.141 193.844 241.613 194.849C242.09 195.855 242.329 197.065 242.329 198.48C242.329 199.895 242.093 201.108 241.621 202.119C241.15 203.125 240.502 203.901 239.678 204.446C238.854 204.986 237.914 205.256 236.857 205.256C236.062 205.256 235.411 205.122 234.905 204.855C234.405 204.588 234.013 204.276 233.729 203.918C233.445 203.56 233.226 203.241 233.073 202.963H232.919V209.909H230.371ZM232.868 198.455C232.868 199.375 233.002 200.182 233.269 200.875C233.536 201.568 233.922 202.111 234.428 202.503C234.934 202.889 235.553 203.082 236.286 203.082C237.047 203.082 237.684 202.881 238.195 202.477C238.706 202.068 239.093 201.514 239.354 200.815C239.621 200.116 239.755 199.33 239.755 198.455C239.755 197.591 239.624 196.815 239.363 196.128C239.107 195.44 238.721 194.898 238.204 194.5C237.692 194.102 237.053 193.903 236.286 193.903C235.547 193.903 234.922 194.094 234.411 194.474C233.905 194.855 233.522 195.386 233.26 196.068C232.999 196.75 232.868 197.545 232.868 198.455ZM244.224 209.909V191.909H246.712V194.031H246.925C247.073 193.759 247.286 193.443 247.565 193.085C247.843 192.727 248.229 192.415 248.724 192.148C249.218 191.875 249.871 191.739 250.684 191.739C251.741 191.739 252.684 192.006 253.513 192.54C254.343 193.074 254.994 193.844 255.465 194.849C255.942 195.855 256.181 197.065 256.181 198.48C256.181 199.895 255.945 201.108 255.474 202.119C255.002 203.125 254.354 203.901 253.531 204.446C252.707 204.986 251.766 205.256 250.709 205.256C249.914 205.256 249.263 205.122 248.758 204.855C248.258 204.588 247.866 204.276 247.582 203.918C247.298 203.56 247.079 203.241 246.925 202.963H246.772V209.909H244.224ZM246.721 198.455C246.721 199.375 246.854 200.182 247.121 200.875C247.388 201.568 247.775 202.111 248.281 202.503C248.786 202.889 249.406 203.082 250.138 203.082C250.9 203.082 251.536 202.881 252.048 202.477C252.559 202.068 252.945 201.514 253.207 200.815C253.474 200.116 253.607 199.33 253.607 198.455C253.607 197.591 253.477 196.815 253.215 196.128C252.959 195.44 252.573 194.898 252.056 194.5C251.545 194.102 250.906 193.903 250.138 193.903C249.4 193.903 248.775 194.094 248.263 194.474C247.758 194.855 247.374 195.386 247.113 196.068C246.852 196.75 246.721 197.545 246.721 198.455ZM260.624 187.545V205H258.076V187.545H260.624ZM263.093 205V191.909H265.641V205H263.093ZM264.38 189.889C263.937 189.889 263.556 189.741 263.238 189.446C262.925 189.145 262.769 188.787 262.769 188.372C262.769 187.952 262.925 187.594 263.238 187.298C263.556 186.997 263.937 186.847 264.38 186.847C264.823 186.847 265.201 186.997 265.513 187.298C265.831 187.594 265.99 187.952 265.99 188.372C265.99 188.787 265.831 189.145 265.513 189.446C265.201 189.741 264.823 189.889 264.38 189.889ZM273.624 205.264C272.356 205.264 271.266 204.977 270.351 204.403C269.442 203.824 268.743 203.026 268.254 202.009C267.766 200.991 267.521 199.827 267.521 198.514C267.521 197.185 267.771 196.011 268.271 194.994C268.771 193.972 269.476 193.173 270.385 192.599C271.294 192.026 272.365 191.739 273.598 191.739C274.592 191.739 275.479 191.923 276.257 192.293C277.035 192.656 277.663 193.168 278.141 193.827C278.624 194.486 278.91 195.256 279.001 196.136H276.521C276.385 195.523 276.072 194.994 275.584 194.551C275.101 194.108 274.453 193.886 273.641 193.886C272.93 193.886 272.308 194.074 271.774 194.449C271.246 194.818 270.834 195.347 270.538 196.034C270.243 196.716 270.095 197.523 270.095 198.455C270.095 199.409 270.24 200.233 270.53 200.926C270.82 201.619 271.229 202.156 271.757 202.537C272.291 202.918 272.919 203.108 273.641 203.108C274.124 203.108 274.561 203.02 274.953 202.844C275.351 202.662 275.683 202.403 275.95 202.068C276.223 201.733 276.413 201.33 276.521 200.858H279.001C278.91 201.705 278.635 202.46 278.175 203.125C277.714 203.79 277.098 204.312 276.325 204.693C275.558 205.074 274.658 205.264 273.624 205.264ZM284.576 205.29C283.747 205.29 282.997 205.136 282.326 204.83C281.656 204.517 281.124 204.065 280.732 203.474C280.346 202.884 280.153 202.159 280.153 201.301C280.153 200.562 280.295 199.955 280.579 199.477C280.863 199 281.247 198.622 281.73 198.344C282.213 198.065 282.752 197.855 283.349 197.713C283.945 197.571 284.553 197.463 285.173 197.389C285.957 197.298 286.593 197.224 287.082 197.168C287.57 197.105 287.926 197.006 288.147 196.869C288.369 196.733 288.48 196.511 288.48 196.205V196.145C288.48 195.401 288.269 194.824 287.849 194.415C287.434 194.006 286.815 193.801 285.991 193.801C285.133 193.801 284.457 193.991 283.963 194.372C283.474 194.747 283.136 195.165 282.948 195.625L280.553 195.08C280.838 194.284 281.252 193.642 281.798 193.153C282.349 192.659 282.982 192.301 283.698 192.08C284.414 191.852 285.167 191.739 285.957 191.739C286.48 191.739 287.034 191.801 287.619 191.926C288.21 192.045 288.761 192.267 289.272 192.591C289.789 192.915 290.213 193.378 290.542 193.98C290.872 194.577 291.036 195.352 291.036 196.307V205H288.548V203.21H288.445C288.281 203.54 288.034 203.864 287.704 204.182C287.374 204.5 286.951 204.764 286.434 204.974C285.917 205.185 285.298 205.29 284.576 205.29ZM285.13 203.244C285.835 203.244 286.437 203.105 286.937 202.827C287.443 202.548 287.826 202.185 288.088 201.736C288.355 201.281 288.488 200.795 288.488 200.278V198.591C288.397 198.682 288.221 198.767 287.96 198.847C287.704 198.92 287.411 198.986 287.082 199.043C286.752 199.094 286.431 199.142 286.119 199.188C285.806 199.227 285.545 199.261 285.335 199.29C284.84 199.352 284.389 199.457 283.98 199.605C283.576 199.753 283.252 199.966 283.008 200.244C282.769 200.517 282.65 200.881 282.65 201.335C282.65 201.966 282.883 202.443 283.349 202.767C283.815 203.085 284.409 203.244 285.13 203.244ZM299.581 191.909V193.955H292.431V191.909H299.581ZM294.348 188.773H296.897V201.156C296.897 201.651 296.971 202.023 297.118 202.273C297.266 202.517 297.456 202.685 297.689 202.776C297.928 202.861 298.186 202.903 298.465 202.903C298.669 202.903 298.848 202.889 299.002 202.861C299.155 202.832 299.275 202.81 299.36 202.793L299.82 204.898C299.672 204.955 299.462 205.011 299.189 205.068C298.917 205.131 298.576 205.165 298.167 205.17C297.496 205.182 296.871 205.062 296.292 204.812C295.712 204.562 295.243 204.176 294.885 203.653C294.527 203.131 294.348 202.474 294.348 201.685V188.773ZM301.44 205V191.909H303.989V205H301.44ZM302.727 189.889C302.284 189.889 301.903 189.741 301.585 189.446C301.273 189.145 301.116 188.787 301.116 188.372C301.116 187.952 301.273 187.594 301.585 187.298C301.903 186.997 302.284 186.847 302.727 186.847C303.17 186.847 303.548 186.997 303.861 187.298C304.179 187.594 304.338 187.952 304.338 188.372C304.338 188.787 304.179 189.145 303.861 189.446C303.548 189.741 303.17 189.889 302.727 189.889ZM311.971 205.264C310.744 205.264 309.673 204.983 308.758 204.42C307.843 203.858 307.133 203.071 306.627 202.06C306.122 201.048 305.869 199.866 305.869 198.514C305.869 197.156 306.122 195.969 306.627 194.952C307.133 193.935 307.843 193.145 308.758 192.582C309.673 192.02 310.744 191.739 311.971 191.739C313.198 191.739 314.269 192.02 315.184 192.582C316.099 193.145 316.809 193.935 317.315 194.952C317.82 195.969 318.073 197.156 318.073 198.514C318.073 199.866 317.82 201.048 317.315 202.06C316.809 203.071 316.099 203.858 315.184 204.42C314.269 204.983 313.198 205.264 311.971 205.264ZM311.98 203.125C312.775 203.125 313.434 202.915 313.957 202.494C314.48 202.074 314.866 201.514 315.116 200.815C315.372 200.116 315.499 199.347 315.499 198.506C315.499 197.67 315.372 196.903 315.116 196.205C314.866 195.5 314.48 194.935 313.957 194.509C313.434 194.082 312.775 193.869 311.98 193.869C311.178 193.869 310.514 194.082 309.985 194.509C309.462 194.935 309.073 195.5 308.818 196.205C308.568 196.903 308.443 197.67 308.443 198.506C308.443 199.347 308.568 200.116 308.818 200.815C309.073 201.514 309.462 202.074 309.985 202.494C310.514 202.915 311.178 203.125 311.98 203.125ZM322.506 197.227V205H319.958V191.909H322.404V194.04H322.566C322.867 193.347 323.338 192.79 323.98 192.369C324.628 191.949 325.444 191.739 326.427 191.739C327.319 191.739 328.1 191.926 328.77 192.301C329.441 192.67 329.961 193.222 330.33 193.955C330.699 194.687 330.884 195.594 330.884 196.673V205H328.336V196.98C328.336 196.031 328.088 195.29 327.594 194.756C327.1 194.216 326.421 193.946 325.557 193.946C324.966 193.946 324.441 194.074 323.98 194.33C323.526 194.585 323.165 194.96 322.898 195.455C322.637 195.943 322.506 196.534 322.506 197.227ZM343.634 205.256C342.577 205.256 341.634 204.986 340.804 204.446C339.98 203.901 339.332 203.125 338.861 202.119C338.395 201.108 338.162 199.895 338.162 198.48C338.162 197.065 338.398 195.855 338.869 194.849C339.347 193.844 340 193.074 340.83 192.54C341.659 192.006 342.6 191.739 343.651 191.739C344.463 191.739 345.117 191.875 345.611 192.148C346.111 192.415 346.497 192.727 346.77 193.085C347.048 193.443 347.264 193.759 347.418 194.031H347.571V187.545H350.119V205H347.631V202.963H347.418C347.264 203.241 347.043 203.56 346.753 203.918C346.469 204.276 346.077 204.588 345.577 204.855C345.077 205.122 344.429 205.256 343.634 205.256ZM344.196 203.082C344.929 203.082 345.548 202.889 346.054 202.503C346.565 202.111 346.952 201.568 347.213 200.875C347.48 200.182 347.614 199.375 347.614 198.455C347.614 197.545 347.483 196.75 347.222 196.068C346.96 195.386 346.577 194.855 346.071 194.474C345.565 194.094 344.94 193.903 344.196 193.903C343.429 193.903 342.79 194.102 342.279 194.5C341.767 194.898 341.381 195.44 341.119 196.128C340.864 196.815 340.736 197.591 340.736 198.455C340.736 199.33 340.867 200.116 341.128 200.815C341.389 201.514 341.776 202.068 342.287 202.477C342.804 202.881 343.44 203.082 344.196 203.082ZM358.439 205.264C357.149 205.264 356.038 204.989 355.106 204.438C354.18 203.881 353.464 203.099 352.958 202.094C352.458 201.082 352.208 199.898 352.208 198.54C352.208 197.199 352.458 196.017 352.958 194.994C353.464 193.972 354.169 193.173 355.072 192.599C355.981 192.026 357.044 191.739 358.26 191.739C358.998 191.739 359.714 191.861 360.407 192.105C361.1 192.349 361.723 192.733 362.274 193.256C362.825 193.778 363.26 194.457 363.578 195.293C363.896 196.122 364.055 197.131 364.055 198.318V199.222H353.649V197.312H361.558C361.558 196.642 361.422 196.048 361.149 195.531C360.876 195.009 360.493 194.597 359.998 194.295C359.51 193.994 358.936 193.844 358.277 193.844C357.561 193.844 356.936 194.02 356.402 194.372C355.873 194.719 355.464 195.173 355.174 195.736C354.89 196.293 354.748 196.898 354.748 197.551V199.043C354.748 199.918 354.902 200.662 355.208 201.276C355.521 201.889 355.956 202.358 356.512 202.682C357.069 203 357.72 203.159 358.464 203.159C358.947 203.159 359.387 203.091 359.785 202.955C360.183 202.812 360.527 202.602 360.816 202.324C361.106 202.045 361.328 201.702 361.481 201.293L363.893 201.727C363.7 202.437 363.353 203.06 362.853 203.594C362.359 204.122 361.737 204.534 360.987 204.83C360.243 205.119 359.393 205.264 358.439 205.264ZM376.746 191.909L371.999 205H369.272L364.516 191.909H367.252L370.567 201.983H370.704L374.01 191.909H376.746ZM383.378 205.264C382.088 205.264 380.977 204.989 380.046 204.438C379.119 203.881 378.404 203.099 377.898 202.094C377.398 201.082 377.148 199.898 377.148 198.54C377.148 197.199 377.398 196.017 377.898 194.994C378.404 193.972 379.108 193.173 380.011 192.599C380.921 192.026 381.983 191.739 383.199 191.739C383.938 191.739 384.654 191.861 385.347 192.105C386.04 192.349 386.662 192.733 387.213 193.256C387.764 193.778 388.199 194.457 388.517 195.293C388.835 196.122 388.994 197.131 388.994 198.318V199.222H378.588V197.312H386.497C386.497 196.642 386.361 196.048 386.088 195.531C385.815 195.009 385.432 194.597 384.938 194.295C384.449 193.994 383.875 193.844 383.216 193.844C382.5 193.844 381.875 194.02 381.341 194.372C380.813 194.719 380.404 195.173 380.114 195.736C379.83 196.293 379.688 196.898 379.688 197.551V199.043C379.688 199.918 379.841 200.662 380.148 201.276C380.46 201.889 380.895 202.358 381.452 202.682C382.009 203 382.659 203.159 383.404 203.159C383.886 203.159 384.327 203.091 384.725 202.955C385.122 202.812 385.466 202.602 385.756 202.324C386.046 202.045 386.267 201.702 386.421 201.293L388.832 201.727C388.639 202.437 388.293 203.06 387.793 203.594C387.298 204.122 386.676 204.534 385.926 204.83C385.182 205.119 384.332 205.264 383.378 205.264ZM393.41 187.545V205H390.862V187.545H393.41ZM401.393 205.264C400.165 205.264 399.094 204.983 398.18 204.42C397.265 203.858 396.555 203.071 396.049 202.06C395.543 201.048 395.29 199.866 395.29 198.514C395.29 197.156 395.543 195.969 396.049 194.952C396.555 193.935 397.265 193.145 398.18 192.582C399.094 192.02 400.165 191.739 401.393 191.739C402.62 191.739 403.691 192.02 404.606 192.582C405.52 193.145 406.231 193.935 406.736 194.952C407.242 195.969 407.495 197.156 407.495 198.514C407.495 199.866 407.242 201.048 406.736 202.06C406.231 203.071 405.52 203.858 404.606 204.42C403.691 204.983 402.62 205.264 401.393 205.264ZM401.401 203.125C402.197 203.125 402.856 202.915 403.378 202.494C403.901 202.074 404.287 201.514 404.537 200.815C404.793 200.116 404.921 199.347 404.921 198.506C404.921 197.67 404.793 196.903 404.537 196.205C404.287 195.5 403.901 194.935 403.378 194.509C402.856 194.082 402.197 193.869 401.401 193.869C400.6 193.869 399.935 194.082 399.407 194.509C398.884 194.935 398.495 195.5 398.239 196.205C397.989 196.903 397.864 197.67 397.864 198.506C397.864 199.347 397.989 200.116 398.239 200.815C398.495 201.514 398.884 202.074 399.407 202.494C399.935 202.915 400.6 203.125 401.401 203.125ZM409.379 209.909V191.909H411.868V194.031H412.081C412.229 193.759 412.442 193.443 412.72 193.085C412.999 192.727 413.385 192.415 413.879 192.148C414.374 191.875 415.027 191.739 415.84 191.739C416.896 191.739 417.84 192.006 418.669 192.54C419.499 193.074 420.149 193.844 420.621 194.849C421.098 195.855 421.337 197.065 421.337 198.48C421.337 199.895 421.101 201.108 420.629 202.119C420.158 203.125 419.51 203.901 418.686 204.446C417.862 204.986 416.922 205.256 415.865 205.256C415.07 205.256 414.419 205.122 413.913 204.855C413.413 204.588 413.021 204.276 412.737 203.918C412.453 203.56 412.234 203.241 412.081 202.963H411.928V209.909H409.379ZM411.876 198.455C411.876 199.375 412.01 200.182 412.277 200.875C412.544 201.568 412.93 202.111 413.436 202.503C413.942 202.889 414.561 203.082 415.294 203.082C416.055 203.082 416.692 202.881 417.203 202.477C417.715 202.068 418.101 201.514 418.362 200.815C418.629 200.116 418.763 199.33 418.763 198.455C418.763 197.591 418.632 196.815 418.371 196.128C418.115 195.44 417.729 194.898 417.212 194.5C416.7 194.102 416.061 193.903 415.294 193.903C414.555 193.903 413.93 194.094 413.419 194.474C412.913 194.855 412.53 195.386 412.269 196.068C412.007 196.75 411.876 197.545 411.876 198.455ZM423.232 205V191.909H425.678V194.04H425.84C426.112 193.318 426.559 192.756 427.178 192.352C427.797 191.943 428.539 191.739 429.402 191.739C430.277 191.739 431.01 191.943 431.601 192.352C432.198 192.761 432.638 193.324 432.922 194.04H433.059C433.371 193.341 433.868 192.784 434.55 192.369C435.232 191.949 436.044 191.739 436.987 191.739C438.175 191.739 439.144 192.111 439.894 192.855C440.649 193.599 441.027 194.722 441.027 196.222V205H438.479V196.46C438.479 195.574 438.237 194.932 437.755 194.534C437.272 194.136 436.695 193.938 436.024 193.938C435.195 193.938 434.55 194.193 434.09 194.705C433.63 195.21 433.399 195.861 433.399 196.656V205H430.86V196.298C430.86 195.588 430.638 195.017 430.195 194.585C429.752 194.153 429.175 193.938 428.465 193.938C427.982 193.938 427.536 194.065 427.127 194.321C426.723 194.571 426.397 194.92 426.147 195.369C425.902 195.818 425.78 196.338 425.78 196.929V205H423.232ZM449.125 205.264C447.835 205.264 446.724 204.989 445.792 204.438C444.866 203.881 444.15 203.099 443.645 202.094C443.145 201.082 442.895 199.898 442.895 198.54C442.895 197.199 443.145 196.017 443.645 194.994C444.15 193.972 444.855 193.173 445.758 192.599C446.667 192.026 447.73 191.739 448.946 191.739C449.684 191.739 450.4 191.861 451.094 192.105C451.787 192.349 452.409 192.733 452.96 193.256C453.511 193.778 453.946 194.457 454.264 195.293C454.582 196.122 454.741 197.131 454.741 198.318V199.222H444.335V197.312H452.244C452.244 196.642 452.108 196.048 451.835 195.531C451.562 195.009 451.179 194.597 450.684 194.295C450.196 193.994 449.622 193.844 448.963 193.844C448.247 193.844 447.622 194.02 447.088 194.372C446.559 194.719 446.15 195.173 445.861 195.736C445.577 196.293 445.434 196.898 445.434 197.551V199.043C445.434 199.918 445.588 200.662 445.895 201.276C446.207 201.889 446.642 202.358 447.199 202.682C447.755 203 448.406 203.159 449.15 203.159C449.633 203.159 450.074 203.091 450.471 202.955C450.869 202.812 451.213 202.602 451.503 202.324C451.792 202.045 452.014 201.702 452.167 201.293L454.579 201.727C454.386 202.437 454.04 203.06 453.54 203.594C453.045 204.122 452.423 204.534 451.673 204.83C450.929 205.119 450.079 205.264 449.125 205.264ZM459.157 197.227V205H456.609V191.909H459.055V194.04H459.217C459.518 193.347 459.989 192.79 460.631 192.369C461.279 191.949 462.094 191.739 463.077 191.739C463.969 191.739 464.751 191.926 465.421 192.301C466.092 192.67 466.612 193.222 466.981 193.955C467.35 194.687 467.535 195.594 467.535 196.673V205H464.987V196.98C464.987 196.031 464.739 195.29 464.245 194.756C463.751 194.216 463.072 193.946 462.208 193.946C461.617 193.946 461.092 194.074 460.631 194.33C460.177 194.585 459.816 194.96 459.549 195.455C459.288 195.943 459.157 196.534 459.157 197.227ZM476.103 191.909V193.955H468.953V191.909H476.103ZM470.87 188.773H473.419V201.156C473.419 201.651 473.492 202.023 473.64 202.273C473.788 202.517 473.978 202.685 474.211 202.776C474.45 202.861 474.708 202.903 474.987 202.903C475.191 202.903 475.37 202.889 475.524 202.861C475.677 202.832 475.796 202.81 475.882 202.793L476.342 204.898C476.194 204.955 475.984 205.011 475.711 205.068C475.438 205.131 475.098 205.165 474.688 205.17C474.018 205.182 473.393 205.062 472.813 204.812C472.234 204.562 471.765 204.176 471.407 203.653C471.049 203.131 470.87 202.474 470.87 201.685V188.773ZM479.641 205.162C479.175 205.162 478.775 204.997 478.439 204.668C478.104 204.332 477.937 203.929 477.937 203.457C477.937 202.991 478.104 202.594 478.439 202.264C478.775 201.929 479.175 201.761 479.641 201.761C480.107 201.761 480.508 201.929 480.843 202.264C481.178 202.594 481.346 202.991 481.346 203.457C481.346 203.77 481.266 204.057 481.107 204.318C480.954 204.574 480.749 204.778 480.493 204.932C480.238 205.085 479.954 205.162 479.641 205.162Z" fill="#495464"/>
<defs>
<linearGradient id="paint0_linear_19_2" x1="-5.52507e-06" y1="160" x2="700" y2="160" gradientUnits="userSpaceOnUse">
<stop stop-color="#87FFDA"/>
<stop offset="0.502216" stop-color="#00FFB1"/>
<stop offset="1" stop-color="#87FFDA"/>
</linearGradient>
<linearGradient id="paint1_linear_19_2" x1="350.224" y1="25" x2="350.224" y2="281" gradientUnits="userSpaceOnUse">
<stop stop-color="#C5FFED"/>
<stop offset="0.5" stop-color="#9CFFE1"/>
<stop offset="1" stop-color="#C5FFED"/>
</linearGradient>
</defs>
</svg>
